<svg width="229" height="227" viewBox="0 0 229 227" fill="none" xmlns="http://www.w3.org/2000/svg">
<circle cx="121.826" cy="113.717" r="10.127" fill="#00204B"/>
<path d="M126.889 86.0977L130.111 92.5421H108.477L113.08 86.0977H126.889Z" fill="#00204B"/>
<path fill-rule="evenodd" clip-rule="evenodd" d="M85 96.223C85 93.1723 87.4731 90.6992 90.5238 90.6992H137.476C140.527 90.6992 143 93.1723 143 96.223V129.366C143 132.417 140.527 134.89 137.476 134.89H90.5238C87.4731 134.89 85 132.417 85 129.366V96.223ZM136.556 113.255C136.556 121.644 129.755 128.445 121.366 128.445C112.976 128.445 106.175 121.644 106.175 113.255C106.175 104.865 112.976 98.0644 121.366 98.0644C129.755 98.0644 136.556 104.865 136.556 113.255ZM92.3644 94.3813C91.3475 94.3813 90.5232 95.2057 90.5232 96.2226C90.5232 97.2395 91.3475 98.0639 92.3644 98.0639H97.8882C98.9051 98.0639 99.7295 97.2395 99.7295 96.2226C99.7295 95.2057 98.9051 94.3813 97.8882 94.3813H92.3644Z" fill="#00204B"/>
<g opacity="0.8">
<path d="M152.424 167.957C145.034 201.422 131.043 224 115 224C91.2518 224 72 174.527 72 113.5C72 52.4725 91.2518 3 115 3C138.748 3 158 52.4725 158 113.5C158 118.703 157.86 123.821 157.589 128.833" stroke="#00204B" stroke-width="5" stroke-linecap="round" stroke-linejoin="round"/>
<path d="M147 106L157.667 130L171 106.533" stroke="#00204B" stroke-width="5" stroke-linecap="round" stroke-linejoin="round"/>
<path d="M39.7305 92.4727L60.0046 76.1723L34.1539 69.3578" stroke="#00204B" stroke-width="5" stroke-linecap="round" stroke-linejoin="round"/>
<path d="M53.7299 76.0225C23.1904 83.7823 3 97.2212 3 112.5C3 136.524 52.9202 156 114.5 156C176.08 156 226 136.524 226 112.5C226 96.5268 203.932 82.5644 171.043 75" stroke="#00204B" stroke-width="5" stroke-linecap="round"/>
</g>
</svg>
