<svg width="229" height="227" viewBox="0 0 229 227" fill="none" xmlns="http://www.w3.org/2000/svg">
<circle cx="121.825" cy="113.717" r="10.127" fill="#00204B"/>
<path d="M126.89 86.0977L130.112 92.5421H108.477L113.08 86.0977H126.89Z" fill="#00204B"/>
<path fill-rule="evenodd" clip-rule="evenodd" d="M85 96.223C85 93.1723 87.4731 90.6992 90.5238 90.6992H137.476C140.527 90.6992 143 93.1723 143 96.223V129.366C143 132.417 140.527 134.89 137.476 134.89H90.5238C87.4731 134.89 85 132.417 85 129.366V96.223ZM136.556 113.255C136.556 121.644 129.755 128.445 121.366 128.445C112.976 128.445 106.175 121.644 106.175 113.255C106.175 104.865 112.976 98.0644 121.366 98.0644C129.755 98.0644 136.556 104.865 136.556 113.255ZM92.3645 94.3813C91.3475 94.3813 90.5232 95.2057 90.5232 96.2226C90.5232 97.2395 91.3475 98.0639 92.3645 98.0639H97.8883C98.9052 98.0639 99.7295 97.2395 99.7295 96.2226C99.7295 95.2057 98.9052 94.3813 97.8883 94.3813H92.3645Z" fill="#00204B"/>
<g opacity="0.8">
<path d="M152.424 167.957C145.034 201.422 131.043 224 115 224C91.2518 224 72 174.527 72 113.5C72 52.4725 91.2518 3 115 3C138.748 3 158 52.4725 158 113.5C158 118.703 157.86 123.821 157.589 128.833" stroke="#00204B" stroke-width="5" stroke-linecap="round" stroke-linejoin="round"/>
<path d="M147 106L157.667 130L171 106.533" stroke="#00204B" stroke-width="5" stroke-linecap="round" stroke-linejoin="round"/>
<path d="M39.7305 92.4727L60.0047 76.1723L34.1539 69.3578" stroke="#00204B" stroke-width="5" stroke-linecap="round" stroke-linejoin="round"/>
<path d="M53.7299 76.0225C23.1904 83.7823 3.00002 97.2212 3.00002 112.5C3.00002 136.524 52.9203 156 114.5 156C176.08 156 226 136.524 226 112.5C226 96.5268 203.932 82.5644 171.043 75" stroke="#00204B" stroke-width="5" stroke-linecap="round"/>
</g>
<circle cx="116.122" cy="172.33" r="5.35652" stroke="#00204B" stroke-width="1.94783"/>
<path fill-rule="evenodd" clip-rule="evenodd" d="M117.096 178.588C117.788 178.481 118.444 178.262 119.043 177.949V186.21H117.096V178.588ZM115.148 186.21V178.588C114.455 178.481 113.799 178.262 113.2 177.949V186.21H115.148Z" fill="#00204B"/>
<path fill-rule="evenodd" clip-rule="evenodd" d="M110.887 188.155H121.113C122.536 188.155 123.71 189.216 123.889 190.59H125.847C125.66 188.138 123.612 186.207 121.113 186.207H110.887C108.388 186.207 106.339 188.138 106.153 190.59H108.111C108.289 189.216 109.464 188.155 110.887 188.155Z" fill="#00204B"/>
<path d="M106.87 190.958H125.13C127.349 190.958 129.148 192.756 129.148 194.975V196.558H102.852V194.975C102.852 192.756 104.651 190.958 106.87 190.958Z" stroke="#00204B" stroke-width="1.70435"/>
</svg>
