<svg width="235" height="256" viewBox="0 0 235 256" fill="none" xmlns="http://www.w3.org/2000/svg">
<g opacity="0.8">
<path d="M105.019 16.7584L117.235 4.69141L129.451 16.7584" stroke="#FFB400" stroke-width="7.64712" stroke-linecap="round" stroke-linejoin="round"/>
<path d="M129.45 239.245L117.233 251.312L105.017 239.245" stroke="#FFB400" stroke-width="7.64712" stroke-linecap="round" stroke-linejoin="round"/>
<path d="M218.784 115.555L231.001 127.622L218.784 139.689" stroke="#FFB400" stroke-width="7.64712" stroke-linecap="round" stroke-linejoin="round"/>
<path d="M16.4509 139.691L4.23441 127.624L16.4509 115.557" stroke="#FFB400" stroke-width="7.64712" stroke-linecap="round" stroke-linejoin="round"/>
</g>
<path fill-rule="evenodd" clip-rule="evenodd" d="M153 131C153 150.33 137.33 166 118 166C98.6701 166 83 150.33 83 131C83 111.67 98.6701 96 118 96C137.33 96 153 111.67 153 131ZM136.05 154.862C131.032 158.663 124.779 160.919 117.999 160.919C111.627 160.919 105.72 158.926 100.867 155.531C101.708 151.428 108.006 141.525 118.072 141.525C128.536 141.525 135.613 151.126 136.05 154.862ZM141.581 149.415C137.637 138.167 142.31 131.761 147.88 129.464C147.906 129.972 147.919 130.484 147.919 130.999C147.919 137.945 145.552 144.338 141.581 149.415ZM146.15 120.84H89.8487C94.008 109.317 105.042 101.08 117.999 101.08C130.957 101.08 141.99 109.317 146.15 120.84ZM88.1614 128.774C88.1074 129.508 88.0799 130.251 88.0799 130.999C88.0799 138.981 91.2057 146.233 96.2999 151.598C97.4338 144.81 97.4998 131.06 88.1614 128.774ZM124.209 131.285C124.209 134.871 121.303 137.777 117.717 137.777C114.132 137.777 111.225 134.871 111.225 131.285C111.225 127.7 114.132 124.793 117.717 124.793C121.303 124.793 124.209 127.7 124.209 131.285Z" fill="#FFB400"/>
<circle cx="117.122" cy="182.33" r="5.35652" stroke="#FFB400" stroke-width="1.94783"/>
<path fill-rule="evenodd" clip-rule="evenodd" d="M118.096 188.588C118.788 188.481 119.444 188.262 120.043 187.949V196.21H118.096V188.588ZM116.148 196.21V188.588C115.455 188.481 114.799 188.262 114.2 187.949V196.21H116.148Z" fill="#FFB400"/>
<path fill-rule="evenodd" clip-rule="evenodd" d="M111.887 198.155H122.113C123.536 198.155 124.71 199.216 124.889 200.59H126.847C126.66 198.138 124.612 196.207 122.113 196.207H111.887C109.388 196.207 107.339 198.138 107.153 200.59H109.111C109.289 199.216 110.464 198.155 111.887 198.155Z" fill="#FFB400"/>
<path d="M107.87 200.958H126.13C128.349 200.958 130.148 202.756 130.148 204.975V206.558H103.852V204.975C103.852 202.756 105.651 200.958 107.87 200.958Z" stroke="#FFB400" stroke-width="1.70435"/>
</svg>
